<?xml version="1.0" encoding="iso-8859-1"?>
<!-- Generator: Adobe Illustrator 19.0.0, SVG Export Plug-In . SVG Version: 6.00 Build 0)  -->
<svg version="1.1" id="Layer_1" xmlns="http://www.w3.org/2000/svg" xmlns:xlink="http://www.w3.org/1999/xlink" x="0px" y="0px"
	 viewBox="0 0 512 512" style="enable-background:new 0 0 512 512;" xml:space="preserve">
<g>
	<path style="fill:#FFA91F;" d="M67.088,346.764v79.017c0,20.396-16.532,36.938-36.938,36.938H0v-79.006
		c0-19.752,15.497-35.882,34.995-36.896c0.644-0.032,1.288-0.053,1.942-0.053H67.088z"/>
	<path style="fill:#FFA91F;" d="M67.088,267.758v79.006h-30.15c-0.655,0-1.298-0.021-1.942-0.053
		C15.497,345.709,0,329.578,0,309.825v-79.006h30.15C50.556,230.819,67.088,247.352,67.088,267.758z"/>
	<polygon style="fill:#FFA91F;" points="327.817,159.133 327.817,204.78 207.967,222.885 150.56,231.552 150.56,159.133 	"/>
</g>
<polygon style="fill:#E2901A;" points="207.967,159.133 207.967,222.885 150.56,231.552 150.56,159.133 "/>
<path style="fill:#71B4E0;" d="M297.82,159.132h-35.893V56.574c0-19.715,16.039-35.754,35.753-35.754h29.695v35.893h-29.557v102.419
	H297.82z"/>
<path style="fill:#FFD41D;" d="M512,346.764c0,79.756-100.954,144.416-225.491,144.416c-120.378,0-218.724-60.427-225.143-136.498
	c-0.222-2.618-0.338-5.257-0.338-7.918s0.116-5.299,0.338-7.918c6.418-76.072,104.765-136.488,225.143-136.488
	C411.046,202.358,512,267.009,512,346.764z"/>
<path style="fill:#E2901A;" d="M67.088,272.476v148.575c-20.364-21.694-32.082-47.093-32.092-74.235v-0.106
	C35.006,319.57,46.724,294.171,67.088,272.476z"/>
<path style="fill:#EFC71D;" d="M365.685,438.923c-124.531,0-225.483-64.655-225.483-144.41c0-25.895,10.652-50.194,29.287-71.209
	c-65.028,25.336-108.458,71.15-108.458,123.463c0,79.756,100.952,144.41,225.483,144.41c84.098,0,157.433-29.49,196.195-73.201
	C448.594,431.268,408.536,438.923,365.685,438.923z"/>
<g>
	<path style="fill:#71B4E0;" d="M117.834,338.847v15.835H61.366c-0.222-2.618-0.338-5.257-0.338-7.918s0.116-5.299,0.338-7.918
		H117.834z"/>
	<rect x="223.422" y="338.849" style="fill:#71B4E0;" width="47.98" height="15.835"/>
	<rect x="376.99" y="338.849" style="fill:#71B4E0;" width="39.598" height="15.835"/>
</g>
<g>
	<circle style="fill:#FFA91F;" cx="170.628" cy="346.767" r="60.712"/>
	<circle style="fill:#FFA91F;" cx="324.196" cy="346.767" r="60.712"/>
</g>
<g>
	<circle style="fill:#86EAD7;" cx="170.628" cy="346.767" r="35.509"/>
	<circle style="fill:#86EAD7;" cx="324.196" cy="346.767" r="35.509"/>
</g>
<g>
	<path style="fill:#78DDCA;" d="M324.195,311.257c-3.164,0-6.23,0.419-9.15,1.196c15.175,4.037,26.359,17.866,26.359,34.312
		c0,16.446-11.184,30.276-26.359,34.312c2.92,0.776,5.985,1.196,9.15,1.196c19.611,0,35.508-15.898,35.508-35.509
		C359.705,327.154,343.806,311.257,324.195,311.257z"/>
	<path style="fill:#78DDCA;" d="M170.624,311.257c-3.164,0-6.23,0.419-9.149,1.196c15.175,4.037,26.359,17.866,26.359,34.312
		c0,16.446-11.184,30.276-26.359,34.312c2.92,0.776,5.985,1.196,9.149,1.196c19.611,0,35.509-15.898,35.509-35.509
		C206.132,327.154,190.235,311.257,170.624,311.257z"/>
</g>
<path style="fill:#FFA91F;" d="M512,346.764c0,25.906-10.641,50.208-29.295,71.216c-0.391,0.443-0.781,0.887-1.193,1.33
	c-6.228,6.862-13.323,13.354-21.177,19.435c-4.117-3.188-8.034-6.492-11.718-9.902c-25.188-23.299-39.947-51.58-39.947-82.078
	c0-34.964,19.393-67.014,51.664-91.991C492.607,279.75,512,311.8,512,346.764z"/>
<ellipse transform="matrix(0.356 -0.9345 0.9345 0.356 17.2982 535.1683)" style="fill:#F9DE6B;" cx="396.929" cy="255.034" rx="18.811" ry="32.706"/>
<ellipse style="fill:#97F2E3;" cx="327.374" cy="38.767" rx="13.32" ry="17.946"/>
<path style="fill:#E2901A;" d="M482.705,417.979c-0.391,0.443-0.781,0.887-1.193,1.33c-6.228,6.862-13.323,13.354-21.177,19.435
	c-4.117-3.188-8.034-6.492-11.718-9.902C460.515,425.824,471.906,422.18,482.705,417.979z"/>
<g>
</g>
<g>
</g>
<g>
</g>
<g>
</g>
<g>
</g>
<g>
</g>
<g>
</g>
<g>
</g>
<g>
</g>
<g>
</g>
<g>
</g>
<g>
</g>
<g>
</g>
<g>
</g>
<g>
</g>
</svg>
