<?xml version="1.0" encoding="iso-8859-1"?>
<!-- Generator: Adobe Illustrator 19.0.0, SVG Export Plug-In . SVG Version: 6.00 Build 0)  -->
<svg version="1.1" id="Layer_1" xmlns="http://www.w3.org/2000/svg" xmlns:xlink="http://www.w3.org/1999/xlink" x="0px" y="0px"
	 viewBox="0 0 512 512" style="enable-background:new 0 0 512 512;" xml:space="preserve">
<g>
	<path style="fill:#484848;" d="M295.051,182.237c-4.799,0-8.678-3.879-8.678-8.678v-34.712c0-23.925,19.465-43.39,43.39-43.39
		c4.799,0,8.678,3.879,8.678,8.678s-3.879,8.678-8.678,8.678c-14.353,0-26.034,11.681-26.034,26.034v34.712
		C303.729,178.358,299.85,182.237,295.051,182.237"/>
	<path style="fill:#666666;" d="M86.78,355.796h364.475c33.41,0,60.746-27.336,60.746-60.746s-27.336-60.746-60.746-60.746H86.78
		L8.678,295.05L86.78,355.796z"/>
	<g>
		<path style="fill:#484848;" d="M86.78,234.305h34.712L86.78,173.559l-43.39,26.034v68.46L86.78,234.305z"/>
		<path style="fill:#484848;" d="M43.39,322.048v68.46l43.39,26.034l34.712-60.746H86.78L43.39,322.048z"/>
		<path style="fill:#484848;" d="M8.678,355.796c-4.799,0-8.678-3.879-8.678-8.678V242.983c0-4.799,3.879-8.678,8.678-8.678
			s8.678,3.879,8.678,8.678v104.136C17.356,351.917,13.477,355.796,8.678,355.796"/>
		<path style="fill:#484848;" d="M381.831,234.305H208.271l26.034-60.746h121.492L381.831,234.305z"/>
		<path style="fill:#484848;" d="M390.508,277.694c-4.799,0-8.678,3.879-8.678,8.678c0,4.799,3.879,8.678,8.678,8.678H512
			c0-6.031-0.92-11.845-2.577-17.356H390.508z"/>
		<path style="fill:#484848;" d="M509.427,312.406H355.801c-4.799,0-8.678,3.879-8.678,8.678s3.879,8.678,8.678,8.678h145.182
			C504.663,324.512,507.544,318.672,509.427,312.406"/>
	</g>
</g>
<g>
</g>
<g>
</g>
<g>
</g>
<g>
</g>
<g>
</g>
<g>
</g>
<g>
</g>
<g>
</g>
<g>
</g>
<g>
</g>
<g>
</g>
<g>
</g>
<g>
</g>
<g>
</g>
<g>
</g>
</svg>
