<?xml version="1.0" encoding="iso-8859-1"?>
<!-- Generator: Adobe Illustrator 17.0.0, SVG Export Plug-In . SVG Version: 6.00 Build 0)  -->
<!DOCTYPE svg PUBLIC "-//W3C//DTD SVG 1.1//EN" "http://www.w3.org/Graphics/SVG/1.1/DTD/svg11.dtd">
<svg version="1.1" id="Layer_1" xmlns="http://www.w3.org/2000/svg" xmlns:xlink="http://www.w3.org/1999/xlink" x="0px" y="0px"
	 width="512px" height="512px" viewBox="0 0 512 512" style="enable-background:new 0 0 512 512;" xml:space="preserve">
<path id="bg_35_" style="fill:#334D5C;" d="M512,255.998C512,397.381,397.384,512,256,512C114.614,512,0,397.381,0,255.998
	C0,114.619,114.614,0,256,0C397.384,0,512,114.619,512,255.998z"/>
<path style="fill:#4E6F7C;" d="M134.338,105.685c0,14.165-11.472,25.616-25.629,25.616c-14.158,0-25.635-11.451-25.635-25.616
	c0-14.143,11.477-25.615,25.635-25.615C122.866,80.07,134.338,91.542,134.338,105.685z"/>
<path style="fill:#4E6F7C;" d="M146.277,154.29c0,8.513-6.895,15.391-15.398,15.391c-8.504,0-15.4-6.878-15.4-15.391
	c0-8.498,6.896-15.388,15.4-15.388C139.382,138.902,146.277,145.792,146.277,154.29z"/>
<path style="fill:#152730;" d="M197.738,171.78c-3.368,0-6.098-2.732-6.098-6.099v-54.003c0-7.062-2.353-9.331-9.683-9.331h-7.591
	c-3.367,0-6.098-2.73-6.098-6.098c0-3.368,2.73-6.098,6.098-6.098h7.591c14.109,0,21.879,7.646,21.879,21.526v54.003
	C203.837,169.049,201.106,171.78,197.738,171.78z"/>
<path style="fill:#EFC84A;" d="M299.752,262.715l-43.01-114.341c-0.074-0.221-0.149-0.441-0.244-0.651l-0.202-0.535h-0.086
	c-1.122-1.928-3.189-3.239-5.58-3.239h-79.625c-3.578,0-6.478,2.9-6.478,6.479v62.623c0,0.768,0.158,1.495,0.402,2.176v47.488
	H299.752z"/>
<path style="fill:#FCF3D9;" d="M171.611,198.318c-0.895,0-1.62-0.726-1.62-1.622v-40.728c0-4.091,3.327-7.416,7.419-7.416
	c0.896,0,1.62,0.721,1.62,1.617s-0.724,1.62-1.62,1.62c-2.303,0-4.179,1.876-4.179,4.18v40.728
	C173.23,197.592,172.505,198.318,171.611,198.318z"/>
<path style="fill:#D7B441;" d="M164.526,213.051c0,0.768,0.158,1.495,0.402,2.176v47.488h134.824l-23.1-61.407H164.526V213.051z"/>
<path style="fill:#9B7713;" d="M265.389,180.438c0,1.873-1.516,3.392-3.389,3.392h-65.076c-1.87,0-3.388-1.519-3.388-3.392l0,0
	c0-1.873,1.519-3.391,3.388-3.391H262C263.873,177.047,265.389,178.565,265.389,180.438L265.389,180.438z"/>
<path style="fill:#EFC84A;" d="M320.695,209.424v-0.289H143.232c-48.646,0-88.079,39.44-88.079,88.084
	c0,48.637,39.433,88.076,88.079,88.076c2.606,0,5.182-0.136,7.731-0.36h148.86c3.672,0.224,7.375,0.36,11.127,0.36
	c69.989,0,126.728-39.439,126.728-88.076C437.679,250.855,386.126,212.884,320.695,209.424z"/>
<path style="fill:#EFC84A;" d="M320.695,209.424v-0.289H143.232c-48.646,0-88.079,39.44-88.079,88.084
	c0,48.637,39.433,88.076,88.079,88.076c2.606,0,5.182-0.136,7.731-0.36h148.86c3.672,0.224,7.375,0.36,11.127,0.36
	c69.989,0,126.728-39.439,126.728-88.076C437.679,250.855,386.126,212.884,320.695,209.424z"/>
<path style="fill:#FCF3D9;" d="M81.303,302.075c-2.684,0-4.859-2.176-4.859-4.856c0-40.896,33.266-74.164,74.158-74.164
	c2.683,0,4.858,2.18,4.858,4.859c0,2.683-2.175,4.862-4.858,4.862c-35.533,0-64.44,28.905-64.44,64.442
	C86.161,299.898,83.986,302.075,81.303,302.075z"/>
<path style="fill:#D7B441;" d="M429.059,265.28c0.224,2.077,0.372,4.176,0.372,6.299c0,46.544-54.295,84.281-121.265,84.281
	c-3.591,0-7.134-0.132-10.645-0.343H155.08c-2.439,0.21-4.902,0.343-7.397,0.343c-46.549,0-84.28-37.737-84.28-84.281
	c0-4.772,0.418-9.44,1.179-14c-6.018,11.919-9.428,25.374-9.428,39.64c0,48.637,39.433,88.076,88.079,88.076
	c2.606,0,5.182-0.136,7.731-0.36h148.86c3.672,0.224,7.375,0.36,11.127,0.36c69.989,0,126.728-39.439,126.728-88.076
	C437.679,285.945,434.612,275.179,429.059,265.28z"/>
<circle style="fill:#C6A036;" cx="153.649" cy="300.896" r="31.671"/>
<circle style="fill:#C6A036;" cx="243.531" cy="300.896" r="31.671"/>
<circle style="fill:#C6A036;" cx="333.413" cy="300.896" r="31.671"/>
<circle style="fill:#9B7713;" cx="239.425" cy="296.725" r="31.672"/>
<circle style="fill:#1F96B2;" cx="239.426" cy="296.725" r="24.754"/>
<circle style="fill:#9B7713;" cx="329.081" cy="296.725" r="31.671"/>
<path style="fill:#1F96B2;" d="M304.325,296.725c0-13.67,11.086-24.753,24.755-24.753c13.673,0,24.755,11.082,24.755,24.753
	c0,13.668-11.082,24.753-24.755,24.753C315.411,321.478,304.325,310.393,304.325,296.725z"/>
<path style="fill:#9B7713;" d="M434.626,295.241c0,1.555-1.259,2.81-2.81,2.81h-42.072c-1.554,0-2.811-1.256-2.811-2.81l0,0
	c0-1.551,1.257-2.811,2.811-2.811h42.072C433.367,292.431,434.626,293.69,434.626,295.241L434.626,295.241z"/>
<path style="fill:#EFC84A;" d="M446.229,238.944c-0.035-0.01-0.068-0.019-0.104-0.019c-4.913,0-8.895,11.017-8.895,24.603
	c0,13.58,3.981,24.594,8.895,24.594c0.035,0,0.068-0.015,0.104-0.015V238.944z"/>
<path style="fill:#EFC84A;" d="M446.229,303.18c-0.035,0-0.068-0.01-0.104-0.01c-4.913,0-8.895,11.008-8.895,24.595
	c0,13.58,3.981,24.6,8.895,24.6c0.035,0,0.068-0.021,0.104-0.021V303.18z"/>
<path style="fill:#9ACAE2;" d="M457.61,291.705c0,2.16-1.752,3.914-3.919,3.914c-2.161,0-3.913-1.754-3.913-3.914
	c0-2.159,1.752-3.91,3.913-3.91C455.858,287.795,457.61,289.546,457.61,291.705z"/>
<circle style="fill:#9ACAE2;" cx="463.545" cy="298.993" r="5.802"/>
<path style="fill:#9ACAE2;" d="M479.468,287.25c0,3.951-3.198,7.148-7.148,7.148c-3.951,0-7.156-3.197-7.156-7.148
	c0-3.945,3.205-7.147,7.156-7.147C476.27,280.103,479.468,283.305,479.468,287.25z"/>
<path style="fill:#9ACAE2;" d="M492.545,303.879c0,5.211-4.216,9.424-9.427,9.424c-5.208,0-9.43-4.213-9.43-9.424
	c0-5.201,4.222-9.424,9.43-9.424C488.329,294.455,492.545,298.678,492.545,303.879z"/>
<circle style="fill:#9B7713;" cx="149.77" cy="296.725" r="31.671"/>
<circle style="fill:#1F96B2;" cx="149.77" cy="296.725" r="24.755"/>
<path style="fill:#1F96B2;" d="M169.194,96.214c0-2.879,2.337-5.22,5.22-5.22c2.884,0,5.221,2.341,5.221,5.22
	c0,2.883-2.337,5.22-5.221,5.22C171.532,101.434,169.194,99.097,169.194,96.214z"/>
<g>
</g>
<g>
</g>
<g>
</g>
<g>
</g>
<g>
</g>
<g>
</g>
<g>
</g>
<g>
</g>
<g>
</g>
<g>
</g>
<g>
</g>
<g>
</g>
<g>
</g>
<g>
</g>
<g>
</g>
</svg>
